<?xml version="1.0" encoding="utf-8"?>
<!-- Generator: Adobe Illustrator 22.0.1, SVG Export Plug-In . SVG Version: 6.00 Build 0)  -->
<svg version="1.1" id="Layer_1" xmlns="http://www.w3.org/2000/svg" xmlns:xlink="http://www.w3.org/1999/xlink" x="0px" y="0px"
	 viewBox="0 0 220.1 217.9" style="enable-background:new 0 0 220.1 217.9;" xml:space="preserve">
<style type="text/css">
	.st0{fill:#554E4F;}
</style>
<title>Untitled-2</title>
<path class="st0" d="M49.5,11c30.4-9.1,61.3-14.7,93-8.1C173.7,9.3,194.2,28,203,58.9c2.3,7.9,4.7,15.7,10,22.3
	c1.9,2.3,6.9,18,5.4,21.6c-3.9-20.8-13.8-21.6-21.1-21.4c-7,0.2-13.4,2.7-19.2,6.6c-3.3,2.2-5.5,4.9-5.3,9.3
	c0.5,11.1,7.8,17,16.4,21.9c8,4.5,15.8,3.5,23.2-1.6c6.5-4.5,4.7-12.4,6-19c2,6.5,2.4,13.1-0.3,19.2c-1.3,2.8-2.4,5.7-3.4,8.6
	c-3.9,12.1-6.7,15.6-18.3,21.1c-4.2,2-3.3,4.6-2,7.5c2.6,6.4,0.6,12-2.8,18.5c-4.4-3.4-10.2-12.7-11.1,1.7
	c-9.7-10.3-10.5-10.2-13.9,0.8c-8.2-9-8.6-9-15.7,0.9c-6.9-9.7-7.2-9.7-14-0.4c-6.2-8.2-6.2-8.2-14.1-1.1
	c-1.8-5.5-4.3-10.3-11.2-7.8c-0.3-3.2,0.8-5.9,2.8-8.5c7.5-10.3,6.5-13.3-6.3-16.1c-12.4-2.7-24.5-5.8-35.5-12.5
	c-11.3-6.9-12.2-19.6-1.8-27.9c10.6-8.5,13.9-29.7,5.9-40.2C71.5,55.4,65.9,49,59.8,43C50.5,34.1,45.8,24,49.5,11z M104.1,133.9
	c22.7,2,38.6-6.9,46.8-28.4c0.6-1.2,1.2-2.5,1.9-3.6c6.1-12.1,4.7-16.2-8.1-20.4c-3.8-1.3-8.2-2.4-12-1.9
	c-16.8,2.2-32.7,7.8-46.5,17.7c-13.3,9.5-10.3,28.6,5,34.9C95.3,134,99.8,134.6,104.1,133.9L104.1,133.9z M171.8,149.5
	c9.3,0.9,11.5-4.5,12.2-11.2c1-9.3-5-20.1-11.3-20.8c-6.5-0.7-23,16.3-21.8,24.5C153.2,156.7,166.6,143.3,171.8,149.5L171.8,149.5z"
	/>
<path class="st0" d="M56.7,9.4c-3.7,13-2.1,24.6,7.2,33.7c6.1,6,11.7,12.4,16.8,19.2c8,10.5,4.7,31.8-5.9,40.2
	c-10.3,8.3-9.5,21,1.8,27.9c10.9,6.7,23.1,9.8,35.5,12.5c12.8,2.8,13.8,5.8,6.3,16.1c-1.9,2.6-3.1,5.3-2.8,8.5v-0.2l-2.3,1.7
	c-9.5-3.9-15.4-12.2-22.1-19.3c-6.5-7-13.3-10.4-22.6-6.9l-8.8-0.2c-5.8-4.2-11.4-8.7-17.4-12.6c-3.8-2.4-8-2.7-6.4,3.8
	c1.3,5.6-0.9,5.3-4.5,3.6c-5.3-2.5-10.2-5.3-12.9-11C9.2,107.1,3,86.3,0.3,64.9c-2.4-18.5,9.9-30.5,22.4-41.4
	C31.3,16.1,45.4,11.1,56.7,9.4z"/>
<path class="st0" d="M59.8,142.8c2.9,0.1,2.7-6.6,15.4-1.5c-6.3,0.1-7,9.1-2.8,9.7c8.2,1.1,13.1,6.7,18.3,12.1
	c5.5,5.6,11.7,10.4,18.4,14.4c3.2,1.9,7.1,3.5,7.7,7.6c1,7,2.8,7.3,9.2,3.8c6.1-3.5,1.8,5.5,5.2,6.5c0.8,7.1,7.8,13.1,4.1,21.1
	c-12.7-2.8-28.2-9.5-46.2-19.3c-6.5-3.5-8.8-10.4-10.6-17C74.8,166.5,68.5,153.8,59.8,142.8z"/>
<path class="st0" d="M129.6,214.8c3.7-8-3.3-13.9-4.1-21.1c5.8,1.5,7.5-3.3,10.3-7.3c3.9,2.2,1.9,9.6,7.8,9.3
	c5.3-0.3,3.6-7.1,7.6-8.7c7.4,11.3,8.4,11.2,15.2-0.8c3.9,1.4,2.8,8.3,8.3,7.9c5.8-0.5,2.7-7,5.6-9.5c4.5,1,2.7,8.8,8.5,7.4
	c4.2-1,1-5.6,3.3-7.8c5.1,11.4,0.2,26.2-11,29.2C164.3,217.7,147,220.2,129.6,214.8z"/>
<path class="st0" d="M109.2,169.1l2.3-1.7L109.2,169.1z"/>
</svg>
