<svg id="Layer_1" data-name="Layer 1" xmlns="http://www.w3.org/2000/svg" viewBox="0 0 220.13 217.88"><defs><style>.cls-1{fill:#f6f7f6;}.cls-2{fill:#eff0f0;}.cls-3{fill:#ecefee;}</style></defs><title>Untitled-2</title><path class="cls-1" d="M622.91,286.12c30.43-9.12,61.28-14.7,93-8.15,31.22,6.46,51.69,25.19,60.54,56.08,2.27,7.91,4.66,15.69,10,22.26,1.86,2.29,6.89,18,5.44,21.62-3.89-20.83-13.78-21.65-21.1-21.44-7,.2-13.36,2.71-19.18,6.56-3.31,2.19-5.47,4.89-5.26,9.26.55,11.07,7.85,17,16.42,21.89,8,4.52,15.83,3.55,23.19-1.57,6.48-4.5,4.67-12.43,6-19,2,6.48,2.44,13.11-.34,19.21a82.09,82.09,0,0,0-3.37,8.6c-3.92,12.07-6.71,15.62-18.34,21.07-4.21,2-3.25,4.64-2.05,7.53,2.64,6.38.6,12-2.79,18.49-4.36-3.4-10.21-12.73-11.11,1.74-9.66-10.3-10.48-10.21-13.88.78-8.15-9-8.59-9-15.71.89-6.89-9.68-7.15-9.69-14-.41-6.22-8.24-6.22-8.24-14.14-1.08-1.8-5.47-4.33-10.34-11.22-7.76-.31-3.23.84-5.86,2.76-8.49,7.51-10.32,6.55-13.31-6.26-16.15-12.4-2.74-24.55-5.84-35.5-12.55-11.3-6.93-12.15-19.64-1.85-27.91,10.56-8.47,13.92-29.72,5.91-40.24a175.3,175.3,0,0,0-16.81-19.21C623.94,309.17,619.2,299.1,622.91,286.12Zm54.65,122.94c22.68,2,38.64-6.85,46.83-28.37a39.46,39.46,0,0,1,1.88-3.64c6.14-12.13,4.65-16.21-8.09-20.43-3.82-1.27-8.16-2.39-12-1.88-16.83,2.21-32.66,7.8-46.46,17.74-13.25,9.54-10.27,28.57,5,34.89A23.45,23.45,0,0,0,677.55,409.06Zm67.68,15.54c9.29.93,11.52-4.52,12.24-11.18,1-9.33-5-20.12-11.25-20.8-6.52-.7-23,16.26-21.82,24.46C726.59,431.85,740,418.43,745.23,424.6Z" transform="translate(-573.43 -275.12)"/><path class="cls-2" d="M630.14,284.52c-3.71,13-2.1,24.65,7.15,33.67A175.3,175.3,0,0,1,654.1,337.4c8,10.52,4.65,31.76-5.91,40.24-10.3,8.27-9.45,21,1.85,27.91,10.94,6.71,23.1,9.81,35.5,12.55,12.81,2.83,13.77,5.83,6.26,16.15-1.92,2.64-3.07,5.26-2.76,8.49l0-.21-2.34,1.7c-9.52-3.94-15.43-12.16-22.07-19.29-6.48-7-13.28-10.4-22.6-6.93l-8.83-.24c-5.78-4.22-11.39-8.71-17.4-12.57-3.76-2.42-8-2.74-6.42,3.78,1.34,5.56-.94,5.32-4.49,3.62-5.25-2.51-10.2-5.32-12.94-11A201.65,201.65,0,0,1,573.73,340c-2.38-18.46,9.86-30.55,22.37-41.35C604.73,291.19,618.84,286.27,630.14,284.52Z" transform="translate(-573.43 -275.12)"/><path class="cls-3" d="M633.22,417.89c2.94.08,2.69-6.59,15.39-1.54-6.27.09-7,9.14-2.82,9.7,8.16,1.09,13.11,6.74,18.3,12.07a88.79,88.79,0,0,0,18.44,14.36c3.17,1.88,7.13,3.49,7.72,7.6,1,7.05,2.84,7.34,9.15,3.75,6.13-3.49,1.76,5.51,5.2,6.52.76,7.15,7.76,13.08,4.11,21.09-12.68-2.78-28.21-9.55-46.17-19.31-6.5-3.53-8.77-10.38-10.56-17A105.75,105.75,0,0,0,633.22,417.89Z" transform="translate(-573.43 -275.12)"/><path class="cls-1" d="M703.07,489.9c3.65-8-3.34-13.94-4.11-21.09,5.8,1.46,7.51-3.27,10.32-7.31,3.89,2.22,1.87,9.61,7.76,9.28,5.3-.29,3.56-7.12,7.61-8.73,7.37,11.29,8.42,11.24,15.2-.79,3.9,1.44,2.83,8.34,8.25,7.86,5.78-.51,2.68-7,5.63-9.53,4.48,1,2.7,8.82,8.53,7.42,4.2-1,1.05-5.65,3.32-7.77,5.12,11.41.22,26.24-11,29.17C737.7,492.81,720.4,495.36,703.07,489.9Z" transform="translate(-573.43 -275.12)"/><path class="cls-1" d="M682.63,444.23l2.34-1.7Z" transform="translate(-573.43 -275.12)"/></svg>