<svg id="Layer_1" data-name="Layer 1" xmlns="http://www.w3.org/2000/svg" viewBox="0 0 1240.81 656.85"><title>Untitled-1</title><path d="M1294,711.78c-4.48,0-4.48-.28-9-.28s-4.48-.12-9-.12-4.49.24-9,.24-4.48-.17-9-.17-4.48.07-9,.07-4.48.16-9,.16-4.48-.52-9-.52-4.48.25-9,.25-4.48.08-9,.08-4.48-.07-9-.07-4.48.28-9,.28-4.48-.16-9-.16-4.49-.32-9-.32-4.48,0-9,0-4.48.69-9,.69-4.48-.53-9-.53-4.48.05-9,.05-4.48.48-9,.48-4.48-.39-9-.39-4.48-.29-9-.29-4.49.21-9,.21-4.49.07-9,.07-4.48.4-9,.4-4.48-.24-9-.24h-9c-4.48,0-4.48-.46-9-.46s-4.48.33-9,.33-4.48-.25-9-.25-4.49.06-9,.06-4.48.52-9,.52-4.48-.42-9-.42-4.48.11-9,.11-4.48.11-9,.11-4.48.12-9,.12-4.48-.65-9-.65-4.49.7-9,.7-4.48.14-9,.14-4.48-.77-9-.77-4.48.28-9,.28-4.48.14-9,.14-4.48-.36-9-.36-4.49.6-9,.6-4.49.07-9,.07-4.48,0-9,0-4.48-.53-9-.53-4.48.36-9,.36-4.49-.12-9-.12-4.49-.38-9-.38l-9,0c-4.48,0-4.48.33-9,.33s-4.48.25-9,.25-4.48-.75-9-.75-4.49.66-9,.66-4.48-.27-9-.27-4.48.31-9,.31-4.48-.53-9-.53-4.48-.21-9-.21-4.49.43-9,.43-4.48.2-9,.2-4.48.08-9,.08-4.48-.62-9-.62-4.48.14-9,.14-4.48.49-9,.49-4.48-.42-9-.42-4.48.3-9,.3-4.49-.23-9-.23-4.49.21-9,.21-4.48-.31-9-.31-4.48.29-9,.29-4.48.24-9,.24-4.48-.45-9-.45-4.48-.29-9-.29-4.49.61-9,.61-4.49.18-9,.18-4.48-.82-9-.82-4.48.82-9,.82-4.48-.42-9-.42-4.48.31-9,.31-4.49-.34-9-.34h-9c-4.48,0-4.48-.24-9-.24s-4.48.67-9,.67-4.48-.12-9-.12-4.49-.08-9-.08-4.49,0-9,0-4.48-.15-9-.15-4.48-.29-9-.29-4.49.16-9,.16-4.49.3-9,.3-4.49,0-9,0-4.48-.24-9-.24l-9,0c-4.49,0-4.49-.44-9-.44s-4.49.71-9,.71-4.49-.14-9-.14-4.49-.16-9-.16-4.49.21-9,.21-4.49-.25-9-.25-4.49-.34-9-.34-4.49.51-9,.51-4.49-.55-9-.55-4.49.31-9,.31-4.49.41-9,.41-4.49-.34-9-.34-4.49-.14-9-.14-4.49.52-9,.52-4.49-.14-9-.14-4.49-.35-9-.35-4.49-.23-9-.23-4.49.08-9,.08-4.49.31-9,.31-4.49-.1-9-.1h-9c-4.49,0-4.49-.06-9-.06s-4.48.08-9,.08-4.49-.05-9-.05-4.49-.22-9-.22-4.49.34-9,.34-4.49-.47-9-.47-4.49.51-9,.51-4.49.08-9,.08-4.49-.52-9-.52-4.49.78-9,.78-4.49-.63-9-.63-4.49.33-9,.33-4.49,0-9,0-4.49.09-9,.09-4.49-.1-9-.1-4.49-.35-9-.35-4.49.4-9,.4-4.49-.34-9-.34-4.49.25-9,.25-4.49-.08-9-.08-4.49.39-9,.39-4.49-.19-9-.19-4.49.17-9,.17c-2.76,0-5.08-1.7-6.89-3.51A9.75,9.75,0,0,1,64,701.52c0-4.48.11-4.48.11-9s-.44-4.48-.44-9,.28-4.48.28-9-.24-4.48-.24-9,.6-4.48.6-9-.62-4.48-.62-9,.35-4.48.35-9-.39-4.48-.39-9,.3-4.48.3-9,.38-4.48.38-9-.43-4.48-.43-9,.32-4.48.32-9-.54-4.48-.54-9,.45-4.48.45-9-.16-4.48-.16-9-.22-4.48-.22-9,.3-4.48.3-9,0-4.48,0-9,.44-4.48.44-9-.61-4.48-.61-9,0-4.48,0-9,0-4.48,0-9-.07-4.48-.07-9,.22-4.48.22-9-.32-4.48-.32-9,.2-4.48.2-9,.45-4.48.45-9,0-4.48,0-9-.66-4.48-.66-9,0-4.48,0-9,0-4.48,0-9,.58-4.48.58-9-.47-4.48-.47-9,.41-4.48.41-9,.16-4.48.16-9,0-4.48,0-9-.46-4.48-.46-9,.51-4.48.51-9-.09-4.48-.09-9-.26-4.48-.26-9-.1-4.48-.1-9,.45-4.48.45-9-.64-4.48-.64-9-.15-4.48-.15-9,0-4.48,0-9,.75-4.48.75-9-.6-4.48-.6-9,.27-4.48.27-9,.2-4.48.2-9,.1-4.48.1-9-.22-4.48-.22-9,0-4.48,0-9,0-4.48,0-9,.34-4.48.34-9-.2-4.48-.2-9,.23-4.48.23-9-.77-4.48-.77-9,.52-4.48.52-9-.42-4.48-.42-9,.16-4.48.16-9,.29-4.48.29-9,.09-4.48.09-9-.22-4.48-.22-9,.17-4.48.17-9,0-4.48,0-9,.08-4.48.08-9-.45-4.48-.45-9,.38-4.48.38-9,0-4.48,0-9S64,79,64,74.49s0-4.48,0-9a9.77,9.77,0,0,1,3-6.94A9.55,9.55,0,0,1,74,55.78c4.48,0,4.48-.68,9-.68s4.48.17,9,.17,4.49,0,9,0,4.48.69,9,.69,4.48-.14,9-.14,4.48-.5,9-.5,4.48-.09,9-.09,4.48.08,9,.08,4.48.25,9,.25,4.48,0,9,0,4.48.36,9,.36,4.48-.55,9-.55,4.49.16,9,.16,4.48-.4,9-.4,4.48.05,9,.05,4.48,0,9,0l9,0c4.48,0,4.48.71,9,.71s4.48-.08,9-.08,4.48-.5,9-.5,4.49.63,9,.63,4.49-.65,9-.65,4.48.54,9,.54,4.48-.38,9-.38,4.48-.22,9-.22,4.48,0,9,0,4.48.12,9,.12,4.48.42,9,.42,4.49.07,9,.07,4.48-.56,9-.56,4.48.27,9,.27,4.48-.3,9-.3,4.48.07,9,.07,4.48.07,9,.07,4.48.31,9,.31,4.49.16,9,.16,4.48-.48,9-.48,4.48.32,9,.32,4.48-.28,9-.28,4.48.36,9,.36,4.48.15,9,.15,4.49-.71,9-.71,4.49.52,9,.52h9c4.48,0,4.48.06,9,.06s4.48-.06,9-.06,4.49-.24,9-.24,4.49.38,9,.38,4.49-.55,9-.55,4.48.23,9,.23,4.48-.37,9-.37,4.48.43,9,.43,4.49.18,9,.18,4.48-.25,9-.25,4.48,0,9,0,4.48.22,9,.22,4.48-.48,9-.48,4.49.44,9,.44,4.48,0,9,0,4.48.18,9,.18,4.48-.37,9-.37,4.48-.21,9-.21,4.48,0,9,0,4.48.33,9,.33,4.48.24,9,.24,4.49-.14,9-.14,4.49.26,9,.26,4.48-.23,9-.23,4.48.25,9,.25,4.48-.49,9-.49,4.48.41,9,.41,4.48-.19,9-.19,4.49.08,9,.08,4.49.12,9,.12,4.48.16,9,.16,4.48-.29,9-.29,4.48.28,9,.28,4.48-.17,9-.17h9c4.49,0,4.49-.08,9-.08s4.48.1,9,.1,4.48-.13,9-.13,4.48.22,9,.22,4.49-.25,9-.25,4.49-.46,9-.46,4.48.42,9,.42,4.48-.15,9-.15,4.49.19,9,.19,4.49-.15,9-.15,4.49.12,9,.12,4.48.34,9,.34,4.49-.36,9-.36,4.49-.16,9-.16,4.49.07,9,.07,4.49-.28,9-.28,4.49.19,9,.19,4.49.53,9,.53,4.49-.42,9-.42,4.49-.32,9-.32,4.49.16,9,.16,4.49.53,9,.53,4.49,0,9,0,4.49-.23,9-.23,4.49-.08,9-.08h9c4.49,0,4.49,0,9,0s4.49-.48,9-.48,4.49.33,9,.33,4.49-.13,9-.13,4.49.09,9,.09,4.49.18,9,.18,4.49-.11,9-.11,4.48.33,9,.33,4.49-.29,9-.29,4.48-.34,9-.34,4.49.29,9,.29,4.49.08,9,.08,4.49.07,9,.07,4.49-.44,9-.44,4.49.63,9,.63,4.49.14,9,.14h9c4.49,0,4.49-.46,9-.46s4.49.15,9,.15h9c4.49,0,4.49.33,9,.33s4.49-.32,9-.32,4.49.19,9,.19,4.49-.45,9-.45,4.49.23,9,.23,4.49-.14,9-.14,4.49.28,9,.28,4.49-.6,9-.6,4.49.68,9,.68,4.49-.42,9-.42,4.49-.3,9-.3a10.35,10.35,0,0,1,7.06,3.34,10,10,0,0,1,3,7.06c0,4.48-.25,4.48-.25,9s-.23,4.48-.23,9,.71,4.48.71,9,.07,4.48.07,9-.3,4.48-.3,9,0,4.48,0,9,.1,4.48.1,9,.06,4.48.06,9,0,4.48,0,9-.65,4.48-.65,9,.66,4.48.66,9-.1,4.48-.1,9,.16,4.48.16,9-.17,4.48-.17,9-.28,4.48-.28,9-.26,4.48-.26,9,.05,4.48.05,9,.31,4.48.31,9,0,4.48,0,9,.2,4.48.2,9-.52,4.48-.52,9,.36,4.48.36,9,0,4.48,0,9-.34,4.48-.34,9,0,4.48,0,9-.12,4.48-.12,9,.12,4.48.12,9,.61,4.48.61,9-.44,4.48-.44,9,0,4.48,0,9,.25,4.48.25,9-.18,4.48-.18,9-.18,4.48-.18,9,.41,4.48.41,9-.4,4.48-.4,9,.46,4.48.46,9,0,4.48,0,9,.07,4.48.07,9,0,4.48,0,9,0,4.48,0,9-.19,4.48-.19,9-.42,4.48-.42,9,.23,4.48.23,9-.28,4.48-.28,9,.59,4.48.59,9-.13,4.48-.13,9,.14,4.48.14,9-.42,4.48-.42,9-.1,4.48-.1,9,.17,4.48.17,9-.24,4.48-.24,9,.38,4.48.38,9,0,4.48,0,9,.33,4.48.33,9-.6,4.48-.6,9,.6,4.48.6,9,0,4.48,0,9-.61,4.48-.61,9,.52,4.48.52,9-.36,4.48-.36,9,0,4.48,0,9,0,4.48,0,9,.4,4.48.4,9-.32,4.48-.32,9-.32,4.48-.32,9,.39,4.48.39,9-.42,4.48-.42,9-.07,4.48-.07,9,.52,4.48.52,9,.32,4.48.32,9-.58,4.48-.58,9c0,2.76-.69,5.51-2.5,7.32A10.57,10.57,0,0,1,1294,711.78Z" transform="translate(-63.6 -55.1)"/></svg>