<?xml version="1.0" encoding="utf-8"?>
<!-- Generator: Adobe Illustrator 22.0.1, SVG Export Plug-In . SVG Version: 6.00 Build 0)  -->
<svg version="1.1" id="Layer_1" xmlns="http://www.w3.org/2000/svg" xmlns:xlink="http://www.w3.org/1999/xlink" x="0px" y="0px"
	 viewBox="0 0 557.7 312.3" style="enable-background:new 0 0 557.7 312.3;" xml:space="preserve">
<style type="text/css">
	.st0{fill:#554E4F;}
</style>
<title>Untitled-1</title>
<g>
	<g>
		<path class="st0" d="M278.9,0C95.9,0,0,134.8,0,156.1s95.9,156.2,278.9,156.2s278.9-134.8,278.9-156.2S461.8,0,278.9,0z
			 M278.9,276.3c-68.5,0-124-53.8-124-120.1S210.4,36,278.9,36s124,53.8,124,120.1S347.4,276.3,278.9,276.3z M340.9,156.2
			c0,33.2-27.8,60.1-62,60.1s-62-26.9-62-60.1s27.8-60.1,62-60.1c18.5,0-11.4,47.6,0,60.1C288.5,166.8,340.9,140.9,340.9,156.2z"/>
	</g>
</g>
</svg>
