<svg id="Layer_1" data-name="Layer 1" xmlns="http://www.w3.org/2000/svg" viewBox="0 0 382.48 428.4"><defs><style>.cls-1{fill:#45bda1;}</style></defs><title>VectorSmartObject_a4967116-6967-4dcc-9140-93a7c9a546e9</title><path class="cls-1" d="M604,604h76.48v15.28H604Zm0-15.28h76.48V573.44H604ZM451,496.88h76.48V481.6H451ZM501.8,360l54.08,54.08,10.8-10.8L512.6,349.2Zm148.08-62H634.6v76.48h15.28Zm30.64,175.92v53.52H604V473.92a38.24,38.24,0,0,1,76.48,0Zm-15.36,0c0-12.24-10.72-23-23-23s-23,10.72-23,23v38.24h45.92ZM757,481.6v15.28h76.48V481.6Zm15-133.68L718,402l10.8,10.8,54.08-54.08Zm-61,126V726.4H573.4V473.92a68.84,68.84,0,1,1,137.68,0Zm-15.28,0c0-29-24.48-53.52-53.52-53.52s-53.52,24.48-53.52,53.52V711H695.88V473.92Zm0,0" transform="translate(-451 -298)"/></svg>