<svg id="Layer_1" data-name="Layer 1" xmlns="http://www.w3.org/2000/svg" viewBox="0 0 410.22 107.26"><defs><style>.cls-1{fill:#fff;stroke-miterlimit:10;stroke-width:7px;}.cls-1,.cls-2{stroke:#fff;}.cls-2{fill:none;stroke-linecap:round;stroke-linejoin:round;stroke-width:6px;}.cls-3{fill:#1f335f;}.cls-4{fill:#f8e300;}</style></defs><title>vb-logowhite</title><circle class="cls-1" cx="55" cy="56.26" r="47.5"/><path class="cls-2" d="M149.49,22.68h19.94s-24.65,47.07-27.84,53.24c-1.36,2.63-2.39,2.87-3.75,2.87H114c-1.36,0-2.24-.24-2.32-2.87-.16-6.14-1.67-53.21-1.67-53.21h19.94l.24,37.57h.56Z" transform="translate(3 3.01)"/><path class="cls-2" d="M172.3,78.52H154.2l11.56-47.07h18.13ZM180.12,10a7,7,0,0,1,7.33,6.65c0,.18,0,.35,0,.53,0,6-5.74,10.85-11.72,10.85a7.07,7.07,0,0,1-7.41-6.73c0-.18,0-.35,0-.53C168.32,14.78,174.22,10,180.12,10Z" transform="translate(3 3.01)"/><path class="cls-2" d="M217.46,76.92a188.33,188.33,0,0,1-26.09,2c-11.48,0-16.43-3-13.48-15l4.31-17.47c1.91-7.74,9.33-15,20.82-15h11.25c11.49,0,15.4,7.26,13.48,15l-3.27,13.24c-.24,1-.24,1.2-1,1.2H196.72l-.64,2.63c-.32,1.12.4,1.92,1.68,1.92h22.81Zm-6.38-29.75c.48-1.92-.48-3.11-2.56-3.11h-4.38a3.88,3.88,0,0,0-4,3.11L199,51.72l11.09-.33Z" transform="translate(3 3.01)"/><path class="cls-2" d="M231.66,31.37h6.14l2.08-8.69H258l-2.1,8.69h11.57L264,45.42H252.4l-4.46,18.1c-.24,1.12.4,1.92,1.67,1.92h10.06l-3,11.09s-11,2.39-17.39,2.39c-11.49,0-11.41-7.26-9.49-15l4.62-18.5h-6.22Z" transform="translate(3 3.01)"/><path class="cls-2" d="M271.71,22.68H305c11.48,0,15.47,7.26,13.48,15l-1,3.76c-1.12,4.06-4.31,6.54-8.45,8.05,3.43,2.16,5.82,5.35,4.94,9.58l-1.06,4.45c-1.83,7.74-9.33,15-20.82,15H258Zm8.3,42h11a4.37,4.37,0,0,0,4.62-3.51l.32-1.44c.4-1.83-.08-3.51-2.87-3.51h-11Zm20-24.57c.4-1.83-.08-3.51-2.87-3.51H287l-2.06,8.49H295.1a4.34,4.34,0,0,0,4.55-3.51Z" transform="translate(3 3.01)"/><path class="cls-2" d="M354.2,76.92a188.33,188.33,0,0,1-26.09,2c-11.48,0-16.43-3-13.48-15l4.31-17.47c1.91-7.74,9.33-15,20.82-15H351c11.49,0,15.4,7.26,13.48,15l-3.27,13.24c-.24,1-.24,1.2-1,1.2H333.46l-.64,2.63c-.32,1.12.4,1.92,1.67,1.92h22.82Zm-6.38-29.75c.48-1.92-.48-3.11-2.55-3.11h-4.38a3.88,3.88,0,0,0-4,3.11l-1.12,4.55,11.09-.33Z" transform="translate(3 3.01)"/><path class="cls-2" d="M368.4,31.37h6.14l2.08-8.69h18.11l-2.08,8.69h11.57l-3.51,14.05H389.14l-4.46,18.1c-.24,1.12.4,1.92,1.67,1.92h10l-3,11.09s-11,2.39-17.39,2.39c-11.49,0-11.41-7.26-9.49-15l4.62-18.5h-6.25Z" transform="translate(3 3.01)"/><path class="cls-2" d="M162,89.27a.13.13,0,0,1,.14-.11h2.13v9h-1.65V92h-.11L160.36,98a.15.15,0,0,1-.17.15h-1.6a.18.18,0,0,1-.17-.15L156.24,92h-.1v6.2h-1.65v-9h2.14c.1,0,.13.11.13.11l2.55,6.6h.14Z" transform="translate(3 3.01)"/><path class="cls-2" d="M165.46,95.82V91.54a2.25,2.25,0,0,1,2.08-2.41,2.81,2.81,0,0,1,.41,0h2.73a2.24,2.24,0,0,1,2.48,2,1.88,1.88,0,0,1,0,.41v4.28a2.27,2.27,0,0,1-2.1,2.41,2.54,2.54,0,0,1-.39,0H168a2.24,2.24,0,0,1-2.48-2A1.88,1.88,0,0,1,165.46,95.82Zm1.67-4.09v3.73c0,.85.38,1.24,1.27,1.24h1.83c.89,0,1.26-.39,1.26-1.24V91.73c0-.85-.37-1.11-1.26-1.11H168.4c-.89,0-1.27.3-1.27,1.11Z" transform="translate(3 3.01)"/><path class="cls-2" d="M176,98.2h-1.65v-9h4.81a2.26,2.26,0,0,1,2.5,2,1.79,1.79,0,0,1,0,.4v1.1a2.08,2.08,0,0,1-1.46,2.18l1.69,3.37h-1.77l-1.61-3.16H176Zm4.08-5.9v-.45c0-.86-.38-1.24-1.27-1.24H176v3h2.81a1.14,1.14,0,0,0,1.27-1.31Z" transform="translate(3 3.01)"/><path class="cls-2" d="M182.89,89.16h6.4v1.45h-4.75v2.31h4.17V94.4h-4.17v2.32h4.73v1.53h-6.38Z" transform="translate(3 3.01)"/><path class="cls-2" d="M202.38,89.16h1.84s-1.72,8.35-1.81,8.81a.25.25,0,0,1-.28.25h-2.72a.26.26,0,0,1-.27-.22c0-.31-.93-6.54-.93-6.54h-.11s-.88,6.23-.93,6.54a.26.26,0,0,1-.27.22h-2.73c-.14,0-.23-.08-.26-.25-.1-.46-1.83-8.81-1.83-8.81h1.81l1.37,7.43h.36l1.24-7.43h2.51l1.24,7.43H201Z" transform="translate(3 3.01)"/><path class="cls-2" d="M210,95.81h-3.63l-.75,2.39h-1.89s2.73-8.4,2.84-8.77.1-.27.44-.27h2.35c.33,0,.37,0,.44.27s2.83,8.77,2.83,8.77h-1.88Zm-3.24-1.63h2.83l-1.16-3.64H208Z" transform="translate(3 3.01)"/><path class="cls-2" d="M215.41,93.38l2.34-4.22h2l-3.51,6.15V98.2h-1.65V95.32l-3.52-6.16h2Z" transform="translate(3 3.01)"/><path class="cls-2" d="M226.34,90.65h-3.93c-.87,0-1.06,0-1.06.81v.27c0,.38.14.48.64.58l3.25.61c1.28.24,1.65.74,1.65,1.88V96c0,1.62-.68,2.29-2.78,2.28s-4.45-.14-4.45-.14V96.7h4.23c1,0,1.33-.17,1.33-1V95a.54.54,0,0,0-.44-.64h-.1c-.62-.13-2.56-.48-3-.56-1.38-.24-2.06-.37-2.06-1.76V91.3c0-1.62.72-2.22,2.8-2.21s3.89.14,3.89.14Z" transform="translate(3 3.01)"/><path class="cls-2" d="M237,90.58h-2.91V98.2h-1.65V90.58h-2.91V89.16H237Z" transform="translate(3 3.01)"/><path class="cls-2" d="M237.4,95.82V91.54a2.25,2.25,0,0,1,2.08-2.41,2.81,2.81,0,0,1,.41,0h2.74a2.24,2.24,0,0,1,2.48,2,1.88,1.88,0,0,1,0,.41v4.28a2.27,2.27,0,0,1-2.1,2.41,2.54,2.54,0,0,1-.39,0h-2.74a2.26,2.26,0,0,1-2.48-2A1.7,1.7,0,0,1,237.4,95.82Zm1.68-4.09v3.73c0,.85.37,1.24,1.26,1.24h1.84c.89,0,1.26-.39,1.26-1.24V91.73c0-.85-.37-1.11-1.26-1.11h-1.84C239.45,90.62,239.08,90.92,239.08,91.73Z" transform="translate(3 3.01)"/><path class="cls-2" d="M248.62,89.16h4.66c1.62,0,2.5.83,2.5,2.26v.5a1.55,1.55,0,0,1-1.13,1.5A1.69,1.69,0,0,1,256,95v.91c0,1.44-.88,2.28-2.5,2.28h-4.85Zm5.57,2.53c0-.85-.37-1.11-1.26-1.11h-2.66v2.25h2.62c.87,0,1.29-.21,1.29-.86Zm-3.92,5.07h2.85c.89,0,1.27-.38,1.27-1.24v-.4c0-.66-.44-.91-1.33-.91h-2.79Z" transform="translate(3 3.01)"/><path class="cls-2" d="M257.14,89.16h6.4v1.45h-4.75v2.31H263V94.4h-4.17v2.32h4.73v1.53h-6.38Z" transform="translate(3 3.01)"/><path class="cls-2" d="M271.59,90.58h-2.9V98.2H267V90.58h-2.92V89.16h7.47Z" transform="translate(3 3.01)"/><path class="cls-2" d="M288.44,89.27a.13.13,0,0,1,.14-.11h2.13v9h-1.65V92H289L286.79,98a.15.15,0,0,1-.17.15H285a.18.18,0,0,1-.17-.15L282.67,92h-.1v6.2h-1.68v-9H283c.1,0,.12.11.12.11l2.56,6.6h.18Z" transform="translate(3 3.01)"/><path class="cls-2" d="M291.89,95.82V91.54A2.25,2.25,0,0,1,294,89.13a2.81,2.81,0,0,1,.41,0h2.74a2.24,2.24,0,0,1,2.48,2,1.88,1.88,0,0,1,0,.41v4.28a2.27,2.27,0,0,1-2.1,2.41,2.54,2.54,0,0,1-.39,0h-2.74a2.26,2.26,0,0,1-2.48-2A1.7,1.7,0,0,1,291.89,95.82Zm1.68-4.09v3.73c0,.85.38,1.24,1.27,1.24h1.83c.89,0,1.27-.39,1.27-1.24V91.73c0-.85-.38-1.11-1.27-1.11h-1.83c-.9,0-1.28.3-1.28,1.11Z" transform="translate(3 3.01)"/><path class="cls-2" d="M302.43,98.2h-1.65v-9h4.81a2.26,2.26,0,0,1,2.49,2,1.88,1.88,0,0,1,0,.41v1.1a2.06,2.06,0,0,1-1.45,2.18l1.68,3.37h-1.76l-1.62-3.16h-2.51Zm4.08-5.9v-.45c0-.86-.38-1.24-1.27-1.24h-2.81v3h2.81A1.14,1.14,0,0,0,306.51,92.3Z" transform="translate(3 3.01)"/><path class="cls-2" d="M309.28,89.16h6.4v1.45h-4.79v2.31h4.17V94.4h-4.17v2.32h4.74v1.53h-6.39Z" transform="translate(3 3.01)"/><path class="cls-2" d="M328.81,89.16h1.84s-1.73,8.35-1.82,8.81a.24.24,0,0,1-.27.25h-2.67a.26.26,0,0,1-.27-.22c-.05-.31-.93-6.54-.93-6.54h-.11s-.88,6.23-.94,6.54a.26.26,0,0,1-.27.22h-2.72c-.14,0-.23-.08-.27-.25-.09-.46-1.82-8.81-1.82-8.81h1.85l1.37,7.43h.36l1.23-7.43h2.52l1.24,7.43h.36Z" transform="translate(3 3.01)"/><path class="cls-2" d="M336.45,95.81h-3.64l-.75,2.39h-1.88L333,89.43c.07-.23.1-.27.44-.27h2.35c.33,0,.37,0,.44.27s2.83,8.77,2.83,8.77H337.2Zm-3.24-1.63H336l-1.15-3.64h-.49Z" transform="translate(3 3.01)"/><path class="cls-2" d="M341.89,93.38l2.35-4.22h2l-3.5,6.15V98.2h-1.66V95.32l-3.52-6.16h2Z" transform="translate(3 3.01)"/><path class="cls-2" d="M352.77,90.65h-3.88c-.88,0-1.08,0-1.08.81v.27c0,.38.15.48.65.58l3.25.61c1.28.24,1.65.74,1.65,1.88V96c0,1.62-.68,2.29-2.79,2.28s-4.45-.14-4.45-.14V96.7h4.25c1,0,1.33-.17,1.33-1V95a.54.54,0,0,0-.44-.64h-.1c-.62-.13-2.56-.48-3-.56-1.38-.24-2.07-.37-2.07-1.76V91.3c0-1.62.73-2.22,2.82-2.21s3.88.14,3.88.14Z" transform="translate(3 3.01)"/><path class="cls-2" d="M363.45,90.58h-2.9V98.2h-1.66V90.58H356V89.16h7.47Z" transform="translate(3 3.01)"/><path class="cls-2" d="M363.83,95.82V91.54a2.25,2.25,0,0,1,2.08-2.41,2.81,2.81,0,0,1,.41,0h2.74a2.24,2.24,0,0,1,2.48,2,1.88,1.88,0,0,1,0,.41v4.28a2.27,2.27,0,0,1-2.1,2.41,2.54,2.54,0,0,1-.39,0h-2.74a2.26,2.26,0,0,1-2.48-2A1.7,1.7,0,0,1,363.83,95.82Zm1.68-4.09v3.73c0,.85.37,1.24,1.26,1.24h1.83c.89,0,1.27-.39,1.27-1.24V91.73c0-.85-.38-1.11-1.27-1.11h-1.83C365.89,90.62,365.51,90.92,365.51,91.73Z" transform="translate(3 3.01)"/><path class="cls-2" d="M384.72,89.16h1.85s-1.73,8.35-1.82,8.81a.25.25,0,0,1-.27.25h-2.73a.26.26,0,0,1-.27-.22c0-.31-.92-6.54-.92-6.54h-.12s-.88,6.23-.93,6.54a.26.26,0,0,1-.27.22h-2.72a.26.26,0,0,1-.27-.25h0c-.09-.46-1.82-8.81-1.82-8.81h1.84l1.37,7.43H378l1.24-7.43h2.51L383,96.59h.35Z" transform="translate(3 3.01)"/><path class="cls-2" d="M389,98.2h-1.65v-9H389Z" transform="translate(3 3.01)"/><path class="cls-2" d="M398.19,98.2h-1.41a.52.52,0,0,1-.53-.29l-4.16-5.81H392v6.1h-1.65v-9h1.19c.35,0,.37.06.46.18l4.47,6.17h0V89.2h1.65Z" transform="translate(3 3.01)"/><path class="cls-2" d="M69.34,44.55a8.64,8.64,0,0,1-5-4.47l3.77,2.1Z" transform="translate(3 3.01)"/><path class="cls-2" d="M50.54,0A50.54,50.54,0,0,1,87.89,84.57c-11-8-24.49-8.85-41.34-17.58-3.73-1.93-10.11-6.6-8.29-14.19,1.27-6.61,8-9.82,11.1-8.44,4.12,1.84-.18,3.24-.18,3.24a7.1,7.1,0,0,1,4.29,2.19c2,2.42-.88,4.81-.88,4.81s6.3-.52,7.53-.35.18,2.37.18,2.37,8-3,11.81,3.41c3.74,6.2-7.2,5.89-7.85,5.87l.32.08c13,3.5,17.6-3,18.47-3.94s2.45.53,2.45.53c2.19-6-3.32-13-3.5-13.22,0,0,1.32,2-.87,2.45-3.11.62-7.53-9.63-7.53-9.63l3.15-.87c-3.68-.44-7.09-5.6-7.09-5.6,3.24-5.78.38-13.22-9.76-16-8.32-2.29-19.74-.44-19.74-.44,4.29.35,8.17-.87,15.5.88,10.94,2.36,9.62,10.32,9.62,10.32A6.72,6.72,0,0,0,64,28.08a14.71,14.71,0,0,0-2-1.78,6.84,6.84,0,0,1-1.54-2.15L61,28.63a12.35,12.35,0,0,0-1.7-2.05l-2.59-1.72A8.7,8.7,0,0,1,56.11,28C54.19,14.8,33,21.54,25.48,23.37s-9.19-2-9.19-2c-.86,10.28,15.33-.23,28.07,2.32C51.15,25.05,52,28.81,52,28.81,32.89,24.05,22.77,39.92,22.77,39.92c3.51-2.19,5-1.16,5-1.16-2.69,4.85-10.63,9.51-14.43,8.62,1.17.94,6.7,1.95,10.82,0-7.35,16.21,2.91,32.19,27.92,39,.31.08-2.21-.07-2.95,0C43,86.93,41,89.47,41,89.47c12.44-1.57,22.12,2.12,28.57,7.92A50.55,50.55,0,1,1,50.55,0Z" transform="translate(3 3.01)"/><path class="cls-3" d="M149.49,22.68h19.94s-24.65,47.07-27.84,53.24c-1.36,2.63-2.39,2.87-3.75,2.87H114c-1.36,0-2.24-.24-2.32-2.87-.16-6.14-1.67-53.21-1.67-53.21h19.94l.24,37.57h.56Z" transform="translate(3 3.01)"/><path class="cls-3" d="M172.3,78.52H154.2l11.56-47.07h18.13ZM180.12,10a7,7,0,0,1,7.33,6.65c0,.18,0,.35,0,.53,0,6-5.74,10.85-11.72,10.85a7.07,7.07,0,0,1-7.41-6.73c0-.18,0-.35,0-.53C168.32,14.78,174.22,10,180.12,10Z" transform="translate(3 3.01)"/><path class="cls-3" d="M217.46,76.92a188.33,188.33,0,0,1-26.09,2c-11.48,0-16.43-3-13.48-15l4.31-17.47c1.91-7.74,9.33-15,20.82-15h11.25c11.49,0,15.4,7.26,13.48,15l-3.27,13.24c-.24,1-.24,1.2-1,1.2H196.72l-.64,2.63c-.32,1.12.4,1.92,1.68,1.92h22.81Zm-6.38-29.75c.48-1.92-.48-3.11-2.56-3.11h-4.38a3.88,3.88,0,0,0-4,3.11L199,51.72l11.09-.33Z" transform="translate(3 3.01)"/><path class="cls-3" d="M231.66,31.37h6.14l2.08-8.69H258l-2.1,8.69h11.57L264,45.42H252.4l-4.46,18.1c-.24,1.12.4,1.92,1.67,1.92h10.06l-3,11.09s-11,2.39-17.39,2.39c-11.49,0-11.41-7.26-9.49-15l4.62-18.5h-6.22Z" transform="translate(3 3.01)"/><path class="cls-4" d="M271.71,22.68H305c11.48,0,15.47,7.26,13.48,15l-1,3.76c-1.12,4.06-4.31,6.54-8.45,8.05,3.43,2.16,5.82,5.35,4.94,9.58l-1.06,4.45c-1.83,7.74-9.33,15-20.82,15H258Zm8.3,42h11a4.37,4.37,0,0,0,4.62-3.51l.32-1.44c.4-1.83-.08-3.51-2.87-3.51h-11Zm20-24.57c.4-1.83-.08-3.51-2.87-3.51H287l-2.06,8.49H295.1a4.34,4.34,0,0,0,4.55-3.51Z" transform="translate(3 3.01)"/><path class="cls-4" d="M354.2,76.92a188.33,188.33,0,0,1-26.09,2c-11.48,0-16.43-3-13.48-15l4.31-17.47c1.91-7.74,9.33-15,20.82-15H351c11.49,0,15.4,7.26,13.48,15l-3.27,13.24c-.24,1-.24,1.2-1,1.2H333.46l-.64,2.63c-.32,1.12.4,1.92,1.67,1.92h22.82Zm-6.38-29.75c.48-1.92-.48-3.11-2.55-3.11h-4.38a3.88,3.88,0,0,0-4,3.11l-1.12,4.55,11.09-.33Z" transform="translate(3 3.01)"/><path class="cls-4" d="M368.4,31.37h6.14l2.08-8.69h18.11l-2.08,8.69h11.57l-3.51,14.05H389.14l-4.46,18.1c-.24,1.12.4,1.92,1.67,1.92h10l-3,11.09s-11,2.39-17.39,2.39c-11.49,0-11.41-7.26-9.49-15l4.62-18.5h-6.25Z" transform="translate(3 3.01)"/><path class="cls-3" d="M162,89.27a.13.13,0,0,1,.14-.11h2.13v9h-1.65V92h-.11L160.36,98a.15.15,0,0,1-.17.15h-1.6a.18.18,0,0,1-.17-.15L156.24,92h-.1v6.2h-1.65v-9h2.14c.1,0,.13.11.13.11l2.55,6.6h.14Z" transform="translate(3 3.01)"/><path class="cls-3" d="M165.46,95.82V91.54a2.25,2.25,0,0,1,2.08-2.41,2.81,2.81,0,0,1,.41,0h2.73a2.24,2.24,0,0,1,2.48,2,1.88,1.88,0,0,1,0,.41v4.28a2.27,2.27,0,0,1-2.1,2.41,2.54,2.54,0,0,1-.39,0H168a2.24,2.24,0,0,1-2.48-2A1.88,1.88,0,0,1,165.46,95.82Zm1.67-4.09v3.73c0,.85.38,1.24,1.27,1.24h1.83c.89,0,1.26-.39,1.26-1.24V91.73c0-.85-.37-1.11-1.26-1.11H168.4c-.89,0-1.27.3-1.27,1.11Z" transform="translate(3 3.01)"/><path class="cls-3" d="M176,98.2h-1.65v-9h4.81a2.26,2.26,0,0,1,2.5,2,1.79,1.79,0,0,1,0,.4v1.1a2.08,2.08,0,0,1-1.46,2.18l1.69,3.37h-1.77l-1.61-3.16H176Zm4.08-5.9v-.45c0-.86-.38-1.24-1.27-1.24H176v3h2.81a1.14,1.14,0,0,0,1.27-1.31Z" transform="translate(3 3.01)"/><path class="cls-3" d="M182.89,89.16h6.4v1.45h-4.75v2.31h4.17V94.4h-4.17v2.32h4.73v1.53h-6.38Z" transform="translate(3 3.01)"/><path class="cls-3" d="M202.38,89.16h1.84s-1.72,8.35-1.81,8.81a.25.25,0,0,1-.28.25h-2.72a.26.26,0,0,1-.27-.22c0-.31-.93-6.54-.93-6.54h-.11s-.88,6.23-.93,6.54a.26.26,0,0,1-.27.22h-2.73c-.14,0-.23-.08-.26-.25-.1-.46-1.83-8.81-1.83-8.81h1.81l1.37,7.43h.36l1.24-7.43h2.51l1.24,7.43H201Z" transform="translate(3 3.01)"/><path class="cls-3" d="M210,95.81h-3.63l-.75,2.39h-1.89s2.73-8.4,2.84-8.77.1-.27.44-.27h2.35c.33,0,.37,0,.44.27s2.83,8.77,2.83,8.77h-1.88Zm-3.24-1.63h2.83l-1.16-3.64H208Z" transform="translate(3 3.01)"/><path class="cls-3" d="M215.41,93.38l2.34-4.22h2l-3.51,6.15V98.2h-1.65V95.32l-3.52-6.16h2Z" transform="translate(3 3.01)"/><path class="cls-3" d="M226.34,90.65h-3.93c-.87,0-1.06,0-1.06.81v.27c0,.38.14.48.64.58l3.25.61c1.28.24,1.65.74,1.65,1.88V96c0,1.62-.68,2.29-2.78,2.28s-4.45-.14-4.45-.14V96.7h4.23c1,0,1.33-.17,1.33-1V95a.54.54,0,0,0-.44-.64h-.1c-.62-.13-2.56-.48-3-.56-1.38-.24-2.06-.37-2.06-1.76V91.3c0-1.62.72-2.22,2.8-2.21s3.89.14,3.89.14Z" transform="translate(3 3.01)"/><path class="cls-3" d="M237,90.58h-2.91V98.2h-1.65V90.58h-2.91V89.16H237Z" transform="translate(3 3.01)"/><path class="cls-3" d="M237.4,95.82V91.54a2.25,2.25,0,0,1,2.08-2.41,2.81,2.81,0,0,1,.41,0h2.74a2.24,2.24,0,0,1,2.48,2,1.88,1.88,0,0,1,0,.41v4.28a2.27,2.27,0,0,1-2.1,2.41,2.54,2.54,0,0,1-.39,0h-2.74a2.26,2.26,0,0,1-2.48-2A1.7,1.7,0,0,1,237.4,95.82Zm1.68-4.09v3.73c0,.85.37,1.24,1.26,1.24h1.84c.89,0,1.26-.39,1.26-1.24V91.73c0-.85-.37-1.11-1.26-1.11h-1.84C239.45,90.62,239.08,90.92,239.08,91.73Z" transform="translate(3 3.01)"/><path class="cls-3" d="M248.62,89.16h4.66c1.62,0,2.5.83,2.5,2.26v.5a1.55,1.55,0,0,1-1.13,1.5A1.69,1.69,0,0,1,256,95v.91c0,1.44-.88,2.28-2.5,2.28h-4.85Zm5.57,2.53c0-.85-.37-1.11-1.26-1.11h-2.66v2.25h2.62c.87,0,1.29-.21,1.29-.86Zm-3.92,5.07h2.85c.89,0,1.27-.38,1.27-1.24v-.4c0-.66-.44-.91-1.33-.91h-2.79Z" transform="translate(3 3.01)"/><path class="cls-3" d="M257.14,89.16h6.4v1.45h-4.75v2.31H263V94.4h-4.17v2.32h4.73v1.53h-6.38Z" transform="translate(3 3.01)"/><path class="cls-3" d="M271.59,90.58h-2.9V98.2H267V90.58h-2.92V89.16h7.47Z" transform="translate(3 3.01)"/><path class="cls-3" d="M288.44,89.27a.13.13,0,0,1,.14-.11h2.13v9h-1.65V92H289L286.79,98a.15.15,0,0,1-.17.15H285a.18.18,0,0,1-.17-.15L282.67,92h-.1v6.2h-1.68v-9H283c.1,0,.12.11.12.11l2.56,6.6h.18Z" transform="translate(3 3.01)"/><path class="cls-3" d="M291.89,95.82V91.54A2.25,2.25,0,0,1,294,89.13a2.81,2.81,0,0,1,.41,0h2.74a2.24,2.24,0,0,1,2.48,2,1.88,1.88,0,0,1,0,.41v4.28a2.27,2.27,0,0,1-2.1,2.41,2.54,2.54,0,0,1-.39,0h-2.74a2.26,2.26,0,0,1-2.48-2A1.7,1.7,0,0,1,291.89,95.82Zm1.68-4.09v3.73c0,.85.38,1.24,1.27,1.24h1.83c.89,0,1.27-.39,1.27-1.24V91.73c0-.85-.38-1.11-1.27-1.11h-1.83c-.9,0-1.28.3-1.28,1.11Z" transform="translate(3 3.01)"/><path class="cls-3" d="M302.43,98.2h-1.65v-9h4.81a2.26,2.26,0,0,1,2.49,2,1.88,1.88,0,0,1,0,.41v1.1a2.06,2.06,0,0,1-1.45,2.18l1.68,3.37h-1.76l-1.62-3.16h-2.51Zm4.08-5.9v-.45c0-.86-.38-1.24-1.27-1.24h-2.81v3h2.81A1.14,1.14,0,0,0,306.51,92.3Z" transform="translate(3 3.01)"/><path class="cls-3" d="M309.28,89.16h6.4v1.45h-4.79v2.31h4.17V94.4h-4.17v2.32h4.74v1.53h-6.39Z" transform="translate(3 3.01)"/><path class="cls-3" d="M328.81,89.16h1.84s-1.73,8.35-1.82,8.81a.24.24,0,0,1-.27.25h-2.67a.26.26,0,0,1-.27-.22c-.05-.31-.93-6.54-.93-6.54h-.11s-.88,6.23-.94,6.54a.26.26,0,0,1-.27.22h-2.72c-.14,0-.23-.08-.27-.25-.09-.46-1.82-8.81-1.82-8.81h1.85l1.37,7.43h.36l1.23-7.43h2.52l1.24,7.43h.36Z" transform="translate(3 3.01)"/><path class="cls-3" d="M336.45,95.81h-3.64l-.75,2.39h-1.88L333,89.43c.07-.23.1-.27.44-.27h2.35c.33,0,.37,0,.44.27s2.83,8.77,2.83,8.77H337.2Zm-3.24-1.63H336l-1.15-3.64h-.49Z" transform="translate(3 3.01)"/><path class="cls-3" d="M341.89,93.38l2.35-4.22h2l-3.5,6.15V98.2h-1.66V95.32l-3.52-6.16h2Z" transform="translate(3 3.01)"/><path class="cls-3" d="M352.77,90.65h-3.88c-.88,0-1.08,0-1.08.81v.27c0,.38.15.48.65.58l3.25.61c1.28.24,1.65.74,1.65,1.88V96c0,1.62-.68,2.29-2.79,2.28s-4.45-.14-4.45-.14V96.7h4.25c1,0,1.33-.17,1.33-1V95a.54.54,0,0,0-.44-.64h-.1c-.62-.13-2.56-.48-3-.56-1.38-.24-2.07-.37-2.07-1.76V91.3c0-1.62.73-2.22,2.82-2.21s3.88.14,3.88.14Z" transform="translate(3 3.01)"/><path class="cls-3" d="M363.45,90.58h-2.9V98.2h-1.66V90.58H356V89.16h7.47Z" transform="translate(3 3.01)"/><path class="cls-3" d="M363.83,95.82V91.54a2.25,2.25,0,0,1,2.08-2.41,2.81,2.81,0,0,1,.41,0h2.74a2.24,2.24,0,0,1,2.48,2,1.88,1.88,0,0,1,0,.41v4.28a2.27,2.27,0,0,1-2.1,2.41,2.54,2.54,0,0,1-.39,0h-2.74a2.26,2.26,0,0,1-2.48-2A1.7,1.7,0,0,1,363.83,95.82Zm1.68-4.09v3.73c0,.85.37,1.24,1.26,1.24h1.83c.89,0,1.27-.39,1.27-1.24V91.73c0-.85-.38-1.11-1.27-1.11h-1.83C365.89,90.62,365.51,90.92,365.51,91.73Z" transform="translate(3 3.01)"/><path class="cls-3" d="M384.72,89.16h1.85s-1.73,8.35-1.82,8.81a.25.25,0,0,1-.27.25h-2.73a.26.26,0,0,1-.27-.22c0-.31-.92-6.54-.92-6.54h-.12s-.88,6.23-.93,6.54a.26.26,0,0,1-.27.22h-2.72a.26.26,0,0,1-.27-.25h0c-.09-.46-1.82-8.81-1.82-8.81h1.84l1.37,7.43H378l1.24-7.43h2.51L383,96.59h.35Z" transform="translate(3 3.01)"/><path class="cls-3" d="M389,98.2h-1.65v-9H389Z" transform="translate(3 3.01)"/><path class="cls-3" d="M398.19,98.2h-1.41a.52.52,0,0,1-.53-.29l-4.16-5.81H392v6.1h-1.65v-9h1.19c.35,0,.37.06.46.18l4.47,6.17h0V89.2h1.65Z" transform="translate(3 3.01)"/><path class="cls-2" d="M69.34,44.55a8.64,8.64,0,0,1-5-4.47l3.77,2.1Z" transform="translate(3 3.01)"/><path class="cls-3" d="M50.54,0A50.54,50.54,0,0,1,87.89,84.57c-11-8-24.49-8.85-41.34-17.58-3.73-1.93-10.11-6.6-8.29-14.19,1.27-6.61,8-9.82,11.1-8.44,4.12,1.84-.18,3.24-.18,3.24a7.1,7.1,0,0,1,4.29,2.19c2,2.42-.88,4.81-.88,4.81s6.3-.52,7.53-.35.18,2.37.18,2.37,8-3,11.81,3.41c3.74,6.2-7.2,5.89-7.85,5.87l.32.08c13,3.5,17.6-3,18.47-3.94s2.45.53,2.45.53c2.19-6-3.32-13-3.5-13.22,0,0,1.32,2-.87,2.45-3.11.62-7.53-9.63-7.53-9.63l3.15-.87c-3.68-.44-7.09-5.6-7.09-5.6,3.24-5.78.38-13.22-9.76-16-8.32-2.29-19.74-.44-19.74-.44,4.29.35,8.17-.87,15.5.88,10.94,2.36,9.62,10.32,9.62,10.32A6.72,6.72,0,0,0,64,28.08a14.71,14.71,0,0,0-2-1.78,6.84,6.84,0,0,1-1.54-2.15L61,28.63a12.35,12.35,0,0,0-1.7-2.05l-2.59-1.72A8.7,8.7,0,0,1,56.11,28C54.19,14.8,33,21.54,25.48,23.37s-9.19-2-9.19-2c-.86,10.28,15.33-.23,28.07,2.32C51.15,25.05,52,28.81,52,28.81,32.89,24.05,22.77,39.92,22.77,39.92c3.51-2.19,5-1.16,5-1.16-2.69,4.85-10.63,9.51-14.43,8.62,1.17.94,6.7,1.95,10.82,0-7.35,16.21,2.91,32.19,27.92,39,.31.08-2.21-.07-2.95,0C43,86.93,41,89.47,41,89.47c12.44-1.57,22.12,2.12,28.57,7.92A50.55,50.55,0,1,1,50.55,0Z" transform="translate(3 3.01)"/></svg>